<?xml version="1.0" encoding="UTF-8"?>
<svg version="1.1" xmlns="http://www.w3.org/2000/svg" width="1024" height="1024">
<path d="M0 0 C337.92 0 675.84 0 1024 0 C1024 337.92 1024 675.84 1024 1024 C686.08 1024 348.16 1024 0 1024 C0 686.08 0 348.16 0 0 Z " fill="#FDFDFD" transform="translate(0,0)"/>
<path d="M0 0 C2.14591238 0.3640743 4.29292138 0.68169271 6.44775391 0.98730469 C25.8637061 4.17160356 44.84402583 12.67637912 57.26806641 28.23730469 C60.27315479 32.77011958 62.76149922 37.62695756 65.36572266 42.40136719 C65.69572266 32.83136719 66.02572266 23.26136719 66.36572266 13.40136719 C74.68812588 13.40136719 82.94676235 13.41763928 91.25244141 13.73339844 C92.24901764 13.76949722 93.24559387 13.80559601 94.27236938 13.8427887 C97.53281241 13.96262589 100.79303011 14.08740483 104.05322266 14.21386719 C105.18601654 14.25771545 106.31881042 14.30156372 107.4859314 14.34674072 C116.11314726 14.68369858 124.73948821 15.04026837 133.36572266 15.40136719 C134.65643677 15.45464172 135.94715088 15.50791626 137.27697754 15.56280518 C145.14281695 15.88865026 153.00750186 16.23328266 160.87149048 16.60116577 C163.36848359 16.71608763 165.86569901 16.82629652 168.36312866 16.93130493 C190.29722075 17.862784 212.10718099 19.35018249 232.36572266 28.40136719 C233.29255859 28.79066406 234.21939453 29.17996094 235.17431641 29.58105469 C247.87193172 35.32568564 258.56115387 45.59711357 264.36572266 58.27636719 C266.41066798 64.09340761 266.82061734 69.54523527 266.86572266 75.65136719 C266.87216797 76.47878418 266.87861328 77.30620117 266.88525391 78.15869141 C266.68497607 87.80476533 263.56059876 95.98989013 257.36572266 103.40136719 C249.05618579 111.14317172 239.08945091 114.3281036 228.36572266 117.40136719 C229.32349609 117.66949219 230.28126953 117.93761719 231.26806641 118.21386719 C250.44404937 123.77409889 268.95497846 131.27475808 279.36572266 149.40136719 C283.30330427 157.19223967 284.57016824 163.336862 284.61572266 172.02636719 C284.64666016 173.46689453 284.64666016 173.46689453 284.67822266 174.93652344 C284.73973414 186.27001463 280.90849352 197.02278166 273.39697266 205.66699219 C258.81798291 219.50646796 238.42162655 222.57764751 219.09228516 222.53417969 C217.64745255 222.53561478 217.64745255 222.53561478 216.1734314 222.53707886 C214.14133641 222.53775593 212.1092392 222.53593482 210.07714844 222.53173828 C207.03396476 222.52644244 203.99093269 222.53166885 200.94775391 222.53808594 C198.95426401 222.53742394 196.9607742 222.53614026 194.96728516 222.53417969 C194.08738922 222.53620392 193.20749329 222.53822815 192.30093384 222.54031372 C186.35387633 222.51926183 180.44333038 222.25347335 174.50830078 221.91064453 C163.83395381 221.30668032 153.17204609 221.1949263 142.48291016 221.12011719 C140.40024468 221.10234255 138.31758275 221.08414833 136.23492432 221.06556702 C131.84057053 221.02695097 127.4462067 220.99060462 123.05181885 220.95608521 C112.69699532 220.87413888 102.34231701 220.77611998 91.98762131 220.67956734 C88.54445373 220.64752474 85.10128295 220.61584461 81.65811157 220.58421326 C-95.5397506 218.94863056 -95.5397506 218.94863056 -114.63427734 209.40136719 C-114.63427734 208.74136719 -114.63427734 208.08136719 -114.63427734 207.40136719 C-114.02303607 207.39713525 -113.4117948 207.39290331 -112.78203106 207.38854313 C-97.82072658 207.28465905 -82.85946539 207.17594253 -67.89823437 207.06202793 C-60.66272106 207.00705006 -53.42720287 206.9536317 -46.19165039 206.90405273 C-39.8757334 206.86077109 -33.55984753 206.81439228 -27.24397928 206.76448864 C-23.90834374 206.73823576 -20.572722 206.71386413 -17.23705101 206.69229317 C1.64121365 206.56888246 20.37024903 206.04638329 39.17822266 204.33886719 C51.07835784 203.26671443 51.07835784 203.26671443 56.36572266 203.40136719 C56.33542969 202.72259521 56.30513672 202.04382324 56.27392578 201.34448242 C56.13447865 198.17608277 56.00009388 195.00748601 55.86572266 191.83886719 C55.79417969 190.23881836 55.79417969 190.23881836 55.72119141 188.60644531 C55.36907492 180.18080073 55.36572266 171.85456569 55.36572266 163.40136719 C26.65572266 163.40136719 -2.05427734 163.40136719 -31.63427734 163.40136719 C-28.33034446 160.0974343 -25.36525946 157.6759268 -21.57177734 155.02636719 C-20.31969679 154.14205171 -19.06844031 153.25656865 -17.81787109 152.37011719 C-17.1461084 151.89445313 -16.4743457 151.41878906 -15.78222656 150.92871094 C-3.61527831 142.27715056 8.33705662 133.48382775 19.36572266 123.40136719 C19.87071289 122.94165527 20.37570312 122.48194336 20.89599609 122.00830078 C33.5175283 110.37321272 43.45052784 95.97241544 44.48852539 78.31201172 C45.03966705 64.52398284 45.03966705 64.52398284 41.36572266 51.40136719 C40.97513672 50.51449219 40.58455078 49.62761719 40.18212891 48.71386719 C32.09829573 32.22559556 16.65734685 23.79489808 0.10400391 17.65136719 C-29.46106291 7.76545143 -64.51666982 9.80862525 -92.68115234 22.80761719 C-109.78003966 31.50196667 -120.14661796 45.19477697 -126.05615234 63.19824219 C-126.76755033 65.90924531 -127.20713036 68.6328219 -127.63427734 71.40136719 C-125.79929687 71.583125 -125.79929687 71.583125 -123.92724609 71.76855469 C-122.22541895 71.93778304 -120.5235964 72.10705753 -118.82177734 72.27636719 C-117.46656982 72.4106311 -117.46656982 72.4106311 -116.08398438 72.54760742 C-111.62296848 72.992156 -107.16401233 73.4474685 -102.70849609 73.94433594 C-92.02506344 75.13015949 -81.37232921 75.91385707 -70.63427734 76.40136719 C-70.52341797 75.51578125 -70.41255859 74.63019531 -70.29833984 73.71777344 C-69.02500072 67.35856804 -65.42298434 61.39258108 -60.25927734 57.40136719 C-53.40784066 53.16783753 -45.49761739 52.53738407 -37.63427734 53.40136719 C-30.46157734 55.12487927 -25.66062878 58.19860957 -21.63427734 64.40136719 C-18.45802026 69.84016357 -19.30157639 75.30535119 -20.25927734 81.33886719 C-23.02666241 90.9770014 -29.83473404 98.34160842 -36.63427734 105.40136719 C-37.35744141 106.16449219 -38.08060547 106.92761719 -38.82568359 107.71386719 C-43.88043395 112.92233983 -49.2853358 117.51812713 -54.95166016 122.04394531 C-56.86749207 123.58950908 -58.76343671 125.15758769 -60.65771484 126.72949219 C-67.15560025 132.12129179 -73.65461482 137.48759896 -80.38427734 142.58886719 C-85.34097096 146.35422598 -90.09100703 150.29418428 -94.80859375 154.34936523 C-99.43841755 158.30156786 -104.25612491 161.94062332 -109.17333984 165.52636719 C-111.59826086 167.27986887 -111.59826086 167.27986887 -113.34521484 169.15136719 C-114.63427734 170.40136719 -114.63427734 170.40136719 -116.63427734 170.40136719 C-116.97966553 169.39025879 -117.32505371 168.37915039 -117.6809082 167.33740234 C-121.48349964 156.32140818 -125.73253835 145.53878397 -130.19677734 134.77636719 C-130.90375842 133.06310188 -131.61045937 131.34972095 -132.31689453 129.63623047 C-137.16075726 117.90087775 -142.05331914 106.1858237 -146.98022461 94.48510742 C-150.06677334 87.15362376 -153.12081671 79.80965075 -156.1472168 72.453125 C-161.9127974 58.44004746 -167.8644611 44.51780166 -173.91943359 30.62792969 C-174.39525879 29.53383789 -174.87108398 28.43974609 -175.36132812 27.3125 C-176.12170223 25.57358538 -176.88861733 23.8374742 -177.66894531 22.10742188 C-178.91538619 19.32057508 -179.63427734 17.50057415 -179.63427734 14.40136719 C-176.63453752 13.79588692 -173.63449321 13.19198076 -170.63427734 12.58886719 C-169.81443359 12.42322266 -168.99458984 12.25757813 -168.14990234 12.08691406 C-165.31283592 11.51735148 -162.47391765 10.95795811 -159.63427734 10.40136719 C-157.92256348 10.06322998 -157.92256348 10.06322998 -156.17626953 9.71826172 C-105.97159854 0.02885035 -50.98527161 -8.65475715 0 0 Z " fill="#02336F" transform="translate(542.63427734375,282.5986328125)"/>
<path d="M0 0 C0.95273426 0.00125633 1.90546852 0.00251266 2.88707352 0.00380707 C40.51273932 0.05918439 78.11910454 0.74553561 115.70043945 2.61474609 C119.11964243 2.78433488 122.53902363 2.94807615 125.95865154 3.1087265 C129.30984472 3.26693044 132.66076909 3.43046722 136.01171875 3.59375 C137.22188156 3.651073 138.43204437 3.708396 139.67887878 3.76745605 C145.18746033 4.04532437 150.53920282 4.52762796 156 5.3125 C159.80577837 5.56186267 163.61504345 5.70360782 167.42578125 5.85546875 C169.69081916 5.96021476 171.95579171 6.06638178 174.22070312 6.17382812 C177.75012711 6.33980684 181.27903485 6.49872681 184.80981445 6.63305664 C198.0557657 7.1472179 210.01082432 8.06716638 222.41479492 12.96606445 C228.62873797 15.29973118 234.56337682 15.49567522 241.1171875 15.62890625 C241.97434357 15.64968735 242.83149963 15.67046844 243.71463013 15.69187927 C246.43467714 15.75691261 249.15481517 15.81604341 251.875 15.875 C253.72657166 15.91822924 255.57813434 15.9618449 257.4296875 16.00585938 C261.95303331 16.11254621 266.47647007 16.21394194 271 16.3125 C261.4304993 26.17076458 244.67762702 26.25603108 232 27.3125 C242.56 28.9625 253.12 30.6125 264 32.3125 C255.82541647 37.76222235 245.83239628 37.81291613 236.3125 38 C234.52682617 38.05124023 234.52682617 38.05124023 232.70507812 38.10351562 C229.80347982 38.18508666 226.9021492 38.25452748 224 38.3125 C236.92401598 40.95732765 249.91083216 42.70732208 263 44.3125 C260.02718506 47.28531494 256.44748769 47.27890482 252.4375 47.875 C251.59791748 48.00430908 250.75833496 48.13361816 249.89331055 48.2668457 C241.61943068 49.47918978 233.3504083 50.00243362 225 50.3125 C242.41498965 54.25535791 242.41498965 54.25535791 260 57.3125 C254.81350095 60.09098163 250.22302234 60.48989405 244.390625 60.62890625 C243.66381531 60.64968735 242.93700562 60.67046844 242.18817139 60.69187927 C239.87554009 60.75705512 237.56279907 60.8161104 235.25 60.875 C233.67837425 60.91821566 232.10675944 60.96183092 230.53515625 61.00585938 C226.69021547 61.11270356 222.84516476 61.21406024 219 61.3125 C233.59356763 64.99619172 248.07939371 68.28514706 263 70.3125 C263 70.9725 263 71.6325 263 72.3125 C249.67460866 74.19038559 236.45194002 75.78886744 223 76.3125 C231.78401535 79.13952613 240.542269 80.19567491 249.6875 81 C251.08276547 81.12996949 252.47794885 81.2608234 253.87304688 81.39257812 C257.24799771 81.70788495 260.62350036 82.01431977 264 82.3125 C261.22539341 85.08710659 258.08601126 85.51260206 254.375 86.375 C253.62677979 86.5512793 252.87855957 86.72755859 252.10766602 86.90917969 C244.4433016 88.6082677 236.8289849 89.10176016 229 89.3125 C230.00417969 89.43367187 231.00835938 89.55484375 232.04296875 89.6796875 C240.72176823 90.7389614 249.3665779 91.92287384 258 93.3125 C243.9623707 102.67091953 218.58127591 99.31853394 203 96.3125 C201.06724324 95.98973897 199.13354364 95.67260113 197.19921875 95.359375 C179.83758604 92.54176056 179.83758604 92.54176056 174.81640625 91.34375 C167.69281395 89.71295221 160.42068308 88.81625799 153.1875 87.8125 C152.39410217 87.70200317 151.60070435 87.59150635 150.78326416 87.47766113 C135.88988254 85.42229458 121.02486444 83.9955814 106 83.3125 C105.10899597 83.27153198 104.21799194 83.23056396 103.29998779 83.18835449 C86.82446473 82.44931946 70.36687566 82.07255909 53.875 82.0625 C52.70277893 82.06149292 51.53055786 82.06048584 50.32281494 82.05944824 C14.08691238 82.08018061 -21.8845964 84.72709756 -57.8449707 89.05535889 C-60.74148196 89.40097467 -63.63939634 89.73391305 -66.53736877 90.0670166 C-83.13145379 91.97784709 -99.65780162 94.19502488 -116.15039062 96.85546875 C-118.85397098 97.28907931 -121.55915041 97.70988393 -124.265625 98.125 C-132.86504768 99.44831458 -141.41709964 100.91879572 -149.9609375 102.5625 C-154.35659758 103.39522495 -158.77096555 104.10064876 -163.1875 104.8125 C-168.19966717 105.62455938 -173.13068066 106.52696169 -178.0625 107.75 C-184.08241924 109.20824131 -190.1316344 110.1363474 -196.25 111.0625 C-206.8340849 112.683313 -217.27699448 114.79000342 -227.7338562 117.07147217 C-241.37479887 120.04132134 -255.07557 122.61110841 -268.81323242 125.09106445 C-269.59753632 125.23285629 -270.38184021 125.37464813 -271.18991089 125.52073669 C-272.65824037 125.78559891 -274.12683292 126.04900856 -275.59573364 126.3106842 C-278.15571279 126.77069982 -280.69476393 127.23370877 -283.21411133 127.8840332 C-286.70903785 128.7225289 -290.29757015 128.58165473 -293.875 128.625 C-294.66519531 128.65400391 -295.45539063 128.68300781 -296.26953125 128.71289062 C-301.83337946 128.77306536 -304.68386074 127.85065177 -309 124.3125 C-310 123.3125 -310 123.3125 -310.5625 120.1875 C-309.85175452 115.29125338 -308.34383099 114.01703831 -304.578125 111.0234375 C-299.96547111 107.96231264 -295.03104419 105.60162511 -290 103.3125 C-300.3653471 104.79825802 -310.63401666 106.67001671 -320.85546875 108.94921875 C-326.36255982 110.15309447 -331.35806711 110.49449784 -337 110.3125 C-335.56568115 106.77845665 -333.93715773 105.29192755 -330.74609375 103.25390625 C-329.89080078 102.70283203 -329.03550781 102.15175781 -328.15429688 101.58398438 C-326.80948242 100.73803711 -326.80948242 100.73803711 -325.4375 99.875 C-324.56802734 99.31490234 -323.69855469 98.75480469 -322.80273438 98.17773438 C-317.31537865 94.67090078 -311.73265277 91.40119495 -306 88.3125 C-317.09740031 88.86111202 -317.09740031 88.86111202 -327.9921875 90.90234375 C-331.34855155 91.58798232 -334.586513 91.4366268 -338 91.3125 C-338 90.6525 -338 89.9925 -338 89.3125 C-328.21925062 83.70179958 -318.59219595 78.25861222 -308 74.3125 C-311.09295363 74.3125 -313.66806858 74.80097598 -316.69140625 75.44140625 C-317.80064453 75.67150391 -318.90988281 75.90160156 -320.05273438 76.13867188 C-322.39710652 76.63050732 -324.74085783 77.12531117 -327.08398438 77.62304688 C-328.19193359 77.85185547 -329.29988281 78.08066406 -330.44140625 78.31640625 C-331.45920166 78.53111572 -332.47699707 78.7458252 -333.52563477 78.96704102 C-336 79.3125 -336 79.3125 -338 78.3125 C-333.82649698 74.68552713 -329.37563402 72.21373524 -324.5 69.6875 C-323.38044922 69.09582031 -323.38044922 69.09582031 -322.23828125 68.4921875 C-318.55473449 66.56240017 -314.90851773 64.75492916 -311 63.3125 C-318.26538985 63.64747028 -325.03984845 64.32317195 -332.015625 66.41796875 C-334.33306457 67.11259396 -336.64397959 67.75493344 -338.984375 68.36328125 C-339.66967285 68.54141357 -340.3549707 68.7195459 -341.06103516 68.90307617 C-342.41972707 69.2548832 -343.7787688 69.60534241 -345.13818359 69.9543457 C-348.33644324 70.60853308 -348.33644324 70.60853308 -351 72.3125 C-352.99958364 72.35330783 -355.00045254 72.35504356 -357 72.3125 C-355.46853407 68.55655842 -353.20051146 66.41969981 -350.1875 63.75 C-349.33542969 62.98558594 -348.48335937 62.22117187 -347.60546875 61.43359375 C-345 59.3125 -345 59.3125 -340 56.3125 C-344.62 56.3125 -349.24 56.3125 -354 56.3125 C-339.01447211 41.32697211 -310.14030964 35.56545285 -290 30.3125 C-289.28618164 30.12413574 -288.57236328 29.93577148 -287.83691406 29.74169922 C-271.16099586 25.40567309 -254.18947095 22.3161593 -237.265625 19.12402344 C-234.55846399 18.61271819 -231.85750378 18.08289774 -229.15625 17.54003906 C-217.38466141 15.21415221 -205.53265411 13.75630118 -193.625 12.3125 C-191.47286364 12.04815062 -189.32076424 11.7835001 -187.16870117 11.51855469 C-181.11343258 10.77514137 -175.0569659 10.04193987 -169 9.3125 C-168.23347107 9.2199292 -167.46694214 9.1273584 -166.67718506 9.03198242 C-162.55648603 8.53465875 -158.43501934 8.0444975 -154.3125 7.5625 C-153.43480957 7.459375 -152.55711914 7.35625 -151.65283203 7.25 C-148.7700856 6.92109968 -145.8857782 6.61372586 -143 6.3125 C-142.33749237 6.24202454 -141.67498474 6.17154907 -140.99240112 6.09893799 C-123.84378307 4.29521162 -106.64956392 3.16908558 -89.4375 2.1875 C-88.6603363 2.14291782 -87.88317261 2.09833565 -87.0824585 2.0524025 C-58.05331593 0.40249252 -29.07248862 -0.05192395 0 0 Z " fill="#E47306" transform="translate(476,508.6875)"/>
<path d="M0 0 C1.41152344 -0.07347656 1.41152344 -0.07347656 2.8515625 -0.1484375 C5.375 0.375 5.375 0.375 6.9921875 2.4375 C7.67667969 3.8915625 7.67667969 3.8915625 8.375 5.375 C8.9421875 6.53773438 9.509375 7.70046875 10.09375 8.8984375 C10.69033993 10.18097445 11.28404139 11.46485857 11.875 12.75 C12.31779297 13.70132812 12.31779297 13.70132812 12.76953125 14.671875 C14.41391488 18.22142556 15.98435131 21.79505455 17.52142334 25.3927002 C19.10818817 29.07771614 20.74074736 32.74252358 22.3671875 36.41015625 C23.15590943 38.1912955 23.94456225 39.97246535 24.7331543 41.75366211 C25.14367035 42.68064911 25.5541864 43.60763611 25.97714233 44.56271362 C32.05567454 58.29125692 38.11775556 72.02542732 44.0625 85.8125 C49.80656217 99.1294513 55.690795 112.38172145 61.59216309 125.62950134 C61.92397583 126.37438309 62.25578857 127.11926483 62.59765625 127.88671875 C62.92560181 128.62285904 63.25354736 129.35899933 63.59143066 130.1174469 C66.81694915 137.36107966 70.01639014 144.61606225 73.19897461 151.87866211 C75.5585437 157.26019018 77.93358899 162.63437502 80.32954407 167.99978638 C81.73050827 171.13830176 83.12730484 174.27866477 84.52389526 177.41912842 C85.21227087 178.96400404 85.90261724 180.50800313 86.59500122 182.05108643 C87.56184828 184.20633683 88.52183983 186.36452189 89.48046875 188.5234375 C89.77361969 189.17221863 90.06677063 189.82099976 90.36880493 190.48944092 C91.61473535 193.31148113 92.375 195.25102372 92.375 198.375 C91.71846939 198.41036362 91.06193878 198.44572723 90.38551331 198.48216248 C83.52287218 198.85231752 76.66043216 199.22604648 69.7980957 199.60180664 C67.24052792 199.7413868 64.68291104 199.88007024 62.12524414 200.01782227 C58.43883044 200.21652563 54.75260817 200.41850393 51.06640625 200.62109375 C49.93167374 200.6815538 48.79694122 200.74201385 47.62782288 200.80430603 C41.50952192 201.14399778 35.46065961 201.66349253 29.375 202.375 C27.18824994 202.43594621 24.99995471 202.46264316 22.8125 202.4375 C21.77996094 202.42847656 20.74742187 202.41945313 19.68359375 202.41015625 C18.54083984 202.39275391 18.54083984 202.39275391 17.375 202.375 C17.20484375 201.76914062 17.0346875 201.16328125 16.859375 200.5390625 C15.33427245 195.26610154 13.58041196 190.18815231 11.4921875 185.11328125 C9.36587533 179.90158605 7.38781681 174.63131923 5.375 169.375 C-7.4096549 168.81616888 -20.05739144 170.48214685 -32.75 171.8125 C-47.70338142 173.37095729 -62.59892549 174.77951637 -77.625 175.375 C-77.82536865 177.19849976 -77.82536865 177.19849976 -78.02978516 179.05883789 C-78.44028015 182.32953433 -79.07145574 185.30750738 -80.1484375 188.43359375 C-80.4475 189.31466797 -80.7465625 190.19574219 -81.0546875 191.10351562 C-81.36664063 191.99748047 -81.67859375 192.89144531 -82 193.8125 C-82.30421875 194.70259766 -82.6084375 195.59269531 -82.921875 196.50976562 C-83.5247174 198.27320845 -84.1310864 200.03545015 -84.74121094 201.79638672 C-85.86606094 205.07833859 -86.93690468 208.37704068 -87.99853516 211.67993164 C-88.625 213.375 -88.625 213.375 -89.625 214.375 C-91.09561023 214.62635574 -92.57622384 214.81959926 -94.05859375 214.98828125 C-95.00476563 215.09986572 -95.9509375 215.2114502 -96.92578125 215.32641602 C-97.96089844 215.44557373 -98.99601562 215.56473145 -100.0625 215.6875 C-109.11336622 216.7689856 -118.12095264 218.01852405 -127.125 219.4375 C-153.20558341 223.5280803 -153.20558341 223.5280803 -161.625 223.375 C-161.03890614 219.27687753 -160.12494472 215.61591254 -158.68359375 211.73828125 C-158.06738159 210.0685022 -158.06738159 210.0685022 -157.4387207 208.36499023 C-156.98456787 207.15141846 -156.53041504 205.93784668 -156.0625 204.6875 C-155.58052998 203.38826659 -155.09901697 202.08886356 -154.61791992 200.78930664 C-153.55221207 197.91399336 -152.48289358 195.04005465 -151.41113281 192.16699219 C-149.81928976 187.8990394 -148.23425503 183.62858596 -146.65068054 179.3575592 C-144.91452513 174.67528921 -143.17626347 169.99380204 -141.4375 165.3125 C-141.10837616 164.42631989 -140.77925232 163.54013977 -140.44015503 162.62710571 C-136.78912095 152.8024739 -133.11231424 142.98803105 -129.38671875 133.19140625 C-129.06886917 132.35447739 -128.75101959 131.51754852 -128.42353821 130.65525818 C-126.51774011 125.65656466 -124.5564366 120.68287523 -122.56208801 115.71888733 C-121.26233403 112.46788331 -120.00444616 109.20237391 -118.75 105.93359375 C-118.23447472 104.59436265 -117.71884665 103.25517112 -117.203125 101.91601562 C-116.41235093 99.86083697 -115.62227763 97.80539916 -114.83398438 95.74926758 C-112.20211356 88.88795423 -109.54018749 82.07233287 -106.49267578 75.38208008 C-104.95845634 71.83317237 -103.78361748 68.16564276 -102.5625 64.5 C-98.87890831 53.70797679 -94.57029468 43.1943815 -90.203125 32.6640625 C-88.66569783 28.95138665 -87.17549873 25.23543733 -85.796875 21.4609375 C-85.53849854 20.76460205 -85.28012207 20.0682666 -85.01391602 19.35083008 C-84.37388534 17.60494758 -83.75420301 15.85163977 -83.13671875 14.09765625 C-81.11768341 10.46130579 -79.36033975 9.21295694 -75.625 7.375 C-72.40932192 6.68360179 -69.2163096 6.45214312 -65.9375 6.25 C-64.0428806 6.10269186 -62.14835045 5.95423192 -60.25390625 5.8046875 C-59.30531738 5.73475586 -58.35672852 5.66482422 -57.37939453 5.59277344 C-53.36744598 5.27557275 -49.37377711 4.82526793 -45.375 4.375 C-36.59426442 3.41488731 -27.79606374 2.72086028 -18.98730469 2.07226562 C-17.4660498 1.9572168 -17.4660498 1.9572168 -15.9140625 1.83984375 C-15.01381348 1.774021 -14.11356445 1.70819824 -13.18603516 1.64038086 C-8.73217566 1.17886081 -4.49830253 0.16109623 0 0 Z " fill="#EC7B04" transform="translate(333.625,296.625)"/>
<path d="M0 0 C7.60793634 1.50283898 14.8760794 1.72398847 22.62158203 1.74316406 C23.2883194 1.74550049 23.95505676 1.74783691 24.64199829 1.75024414 C34.7390561 1.7635658 44.42179845 0.93390816 54.36767578 -0.83886719 C59.41484352 -1.72463991 64.38634179 -1.82329577 69.49658203 -1.50683594 C69.51076172 -0.44464844 69.52494141 0.61753906 69.53955078 1.71191406 C69.78141269 10.16808601 70.3061416 15.52704664 75.49658203 22.49316406 C75.16658203 23.48316406 74.83658203 24.47316406 74.49658203 25.49316406 C72.44628906 26.3527832 72.44628906 26.3527832 69.75439453 27.02832031 C68.76955078 27.28033203 67.78470703 27.53234375 66.77001953 27.79199219 C65.73103516 28.04400391 64.69205078 28.29601562 63.62158203 28.55566406 C62.62126953 28.81154297 61.62095703 29.06742188 60.59033203 29.33105469 C57.56689466 30.09082028 54.53638818 30.802005 51.49658203 31.49316406 C50.62952637 31.6976416 49.7624707 31.90211914 48.86914062 32.11279297 C40.57874482 33.86710133 32.30041055 33.8043985 23.87158203 33.74316406 C22.73890396 33.73851135 22.73890396 33.73851135 21.58334351 33.73376465 C8.24106152 33.66934936 -4.49200064 33.28148311 -17.41748047 29.61035156 C-25.59275555 27.3600022 -33.8439942 25.82625136 -42.19091797 24.36816406 C-43.61094143 24.11482654 -45.03086372 23.86092135 -46.45068359 23.60644531 C-53.53135451 22.34231267 -60.62033329 21.13327806 -67.71704102 19.96240234 C-70.49525705 19.4945384 -73.26702963 18.99895439 -76.03857422 18.49316406 C-86.86108769 16.52692757 -97.61530446 14.89793866 -108.56982422 13.88769531 C-110.84229001 13.65977173 -113.11301415 13.38836381 -115.36386108 13.00140381 C-120.98895461 12.09079884 -126.67261316 11.81080804 -132.35498047 11.44628906 C-133.0460854 11.40191963 -133.73719032 11.3575502 -134.44923782 11.31183624 C-151.5120948 10.24916346 -168.56640384 10.18725573 -185.65673828 10.23242188 C-190.00104794 10.24379734 -194.34511183 10.23704102 -198.68941307 10.22553635 C-267.07710754 10.07244243 -335.14659675 18.71281392 -401.39599609 35.75634766 C-404.42033613 36.47346411 -407.43234303 37.02002441 -410.50341797 37.49316406 C-408.85331422 34.19295657 -405.19914834 33.76907626 -401.87451172 32.62988281 C-401.09261978 32.35602249 -400.31072784 32.08216217 -399.50514221 31.80000305 C-397.8375508 31.21748095 -396.16871813 30.63850228 -394.4987793 30.06274414 C-392.00089742 29.20134802 -389.50676389 28.32981397 -387.01318359 27.45605469 C-373.85734493 22.86552279 -360.64740654 18.40157283 -347.12841797 14.99316406 C-342.46083447 13.79659128 -337.80008106 12.59717339 -333.17529297 11.24316406 C-321.37903021 7.7980473 -309.46696243 5.38881062 -297.40429688 3.06640625 C-294.21481362 2.43613301 -291.0448393 1.73940252 -287.87304688 1.02661133 C-202.21026605 -18.00627329 -109.81667169 -19.20471264 0 0 Z " fill="#052D63" transform="translate(679.50341796875,611.5068359375)"/>
<path d="M0 0 C3.11234801 3.36567867 5.02971153 6.85676964 6.9375 11 C10.89879366 19.0909423 16.62593808 24.37545813 24.6875 28.3125 C36.5162571 30.76752506 46.71623997 27.71647913 57.5625 23.25 C58.44236572 22.89510498 59.32223145 22.54020996 60.22875977 22.17456055 C64.13698334 20.59585 68.03269407 18.99658836 71.8984375 17.31640625 C92.48518698 8.56817385 115.29083391 3.85661268 137.125 10.734375 C142.40232548 13.05754546 147.07930184 15.94494549 150 21 C151.23013902 26.34474193 150.13390101 30.39693179 147.5 35.125 C138.61475126 48.49419985 123.95967433 54.76349472 109 59 C107.90171875 59.32097656 106.8034375 59.64195312 105.671875 59.97265625 C90.83961408 63.75101656 75.45904988 62.2819302 60.40649414 60.7253418 C44.50965109 59.09763252 32.0296086 59.74475673 19 70 C9.53218933 77.88323985 4.57211731 88.20337876 0.65234375 99.6171875 C-1.65311989 104.33712016 -4.51113948 106.72287893 -9.23046875 109.14453125 C-12.26581873 110.18054891 -14.77161114 111 -18 111 C-25.50306669 102.83489801 -23.29528041 91.12271371 -22.86376953 80.71386719 C-21.97952206 62.90367031 -20.47382197 45.1385054 -18.9375 27.375 C-18.84964233 26.35538177 -18.76178467 25.33576355 -18.67126465 24.2852478 C-18.41817818 21.36435063 -18.16114037 18.44383376 -17.90234375 15.5234375 C-17.82634445 14.64975021 -17.75034515 13.77606293 -17.67204285 12.87590027 C-17.28231869 8.54324142 -16.79002435 4.28274068 -16 0 C-10.52691873 -0.80668998 -5.4177739 -1.48723205 0 0 Z " fill="#164A88" transform="translate(801,518)"/>
<path d="M0 0 C0.01417969 1.0621875 0.02835938 2.124375 0.04296875 3.21875 C0.28483066 11.67492195 0.80955957 17.03388258 6 24 C5.505 25.485 5.505 25.485 5 27 C2.94970703 27.85961914 2.94970703 27.85961914 0.2578125 28.53515625 C-0.72703125 28.78716797 -1.711875 29.03917969 -2.7265625 29.29882812 C-3.76554688 29.55083984 -4.80453125 29.80285156 -5.875 30.0625 C-6.8753125 30.31837891 -7.875625 30.57425781 -8.90625 30.83789062 C-11.92968737 31.59765622 -14.96019385 32.30884093 -18 33 C-18.86705566 33.20447754 -19.73411133 33.40895508 -20.62744141 33.61962891 C-28.91849238 35.37407591 -37.19573893 35.30921658 -45.625 35.25 C-46.75418854 35.2463443 -46.75418854 35.2463443 -47.90618896 35.24261475 C-61.61820536 35.19041117 -74.67891046 34.4687301 -88 31 C-87.34 28.03 -86.68 25.06 -86 22 C-85.34 22 -84.68 22 -84 22 C-83.86271484 20.49759766 -83.86271484 20.49759766 -83.72265625 18.96484375 C-83.11424347 14.7059543 -81.4484628 11.32558881 -79.4375 7.5625 C-79.10814453 6.92634766 -78.77878906 6.29019531 -78.43945312 5.63476562 C-77.63546752 4.08505424 -76.81902334 2.54181678 -76 1 C-75.26523437 1.144375 -74.53046875 1.28875 -73.7734375 1.4375 C-54.46961732 4.63261507 -34.34305011 4.0981088 -15.12890625 0.66796875 C-10.08173851 -0.21780398 -5.11024025 -0.31645983 0 0 Z " fill="#E87205" transform="translate(749,610)"/>
<path d="M0 0 C9.05040917 0.27544724 18.09984175 0.55550246 27.14892578 0.86767578 C29.4570991 0.9469854 31.76534815 1.02419448 34.07373047 1.09716797 C56.77250747 1.83994547 56.77250747 1.83994547 66.21484375 10.94921875 C69.29027835 14.48226725 69.84014494 17.46539138 70.3125 22 C69.7881677 27.03359011 67.917398 30.01379715 64.5 33.6875 C54.50613228 41.15279878 40.74870162 39.34518746 29 39 C27.74848145 38.96326172 26.49696289 38.92652344 25.20751953 38.88867188 C16.80312661 38.63345934 8.40253763 38.31857963 0 38 C0 25.46 0 12.92 0 0 Z " fill="#FAFBFB" transform="translate(680,418)"/>
<path d="M0 0 C1 3 1 3 0.20703125 4.7265625 C-11.51481586 20.68403504 -30.51410424 27.14889769 -49.26220703 30.59716797 C-61.6417049 32.41865642 -74.23002489 31.00142335 -86.59521484 29.72583008 C-102.49035576 28.09420965 -114.97250459 28.74641997 -128 39 C-137.46781067 46.88323985 -142.42788269 57.20337876 -146.34765625 68.6171875 C-148.65311989 73.33712016 -151.51113948 75.72287893 -156.23046875 78.14453125 C-159.26581873 79.18054891 -161.77161114 80 -165 80 C-169.0355639 75.60835693 -170.14094903 72.4397176 -170.125 66.5625 C-170.12757813 65.61503906 -170.13015625 64.66757812 -170.1328125 63.69140625 C-170.01239688 61.25121913 -169.88087002 59.27600521 -169 57 C-166.64952933 55.79975966 -164.46535915 54.89689589 -162 54 C-160.22834635 53.27282873 -158.45753537 52.54360157 -156.6875 51.8125 C-152.25468165 50 -152.25468165 50 -150 50 C-149.73445312 49.44570313 -149.46890625 48.89140625 -149.1953125 48.3203125 C-141.3863168 33.1616738 -131.4522946 20.80669221 -115 15 C-103.60032817 12.76047952 -93.34416035 14.30315355 -82.1875 17 C-56.46428604 22.71847215 -32.88492834 21.44123297 -9.52734375 8.625 C-6.18572299 6.47644631 -4.30904839 4.20287357 -2 1 C-1.34 0.67 -0.68 0.34 0 0 Z " fill="#052A62" transform="translate(948,549)"/>
<path d="M0 0 C3.39650762 1.69825381 3.9807542 5.65742708 5.25 9.0625 C5.5586499 9.87525391 5.8672998 10.68800781 6.18530273 11.52539062 C6.82240969 13.20603201 7.45641779 14.88785122 8.08740234 16.57080078 C8.90914615 18.75816056 9.74259329 20.94047865 10.58203125 23.12109375 C13.55484142 30.88672266 16.24470088 38.71220979 18.81176758 46.62084961 C20.52139934 51.79944677 22.59797063 56.66953867 24.96484375 61.5859375 C26.56196676 65.31054889 27.28232981 69.02019258 28 73 C19.32465912 74.60677379 10.64164857 75.63598059 1.86230469 76.43261719 C-0.26168345 76.6260641 -2.38472176 76.8282142 -4.5078125 77.03125 C-11.01903172 77.64128447 -17.45669767 78.18646716 -24 78 C-22.89939706 70.87072128 -20.78660848 64.39177733 -18.2890625 57.63671875 C-16.64432347 52.99656108 -15.34086788 48.29318362 -14.02734375 43.55078125 C-12.97384584 39.90960405 -11.78856062 36.33651379 -10.5625 32.75 C-8.37450733 26.31393541 -6.50717731 19.82927295 -4.78735352 13.25292969 C-3.55076038 8.62081207 -1.98743162 4.36545674 0 0 Z " fill="#FDFBF6" transform="translate(295,347)"/>
<path d="M0 0 C1.07217773 -0.0299707 1.07217773 -0.0299707 2.16601562 -0.06054688 C8.92107324 -0.05441149 13.9947877 2.12661662 18.8984375 6.765625 C21.90105265 11.97828683 21.26222705 17.63863794 20.4375 23.4375 C17.96369958 30.12449176 13.22900925 33.89240462 7.09375 37.21875 C0.69278148 40.15566497 -4.48087084 41.4375 -11.5625 41.4375 C-11.5625 47.7075 -11.5625 53.9775 -11.5625 60.4375 C-18.5625 62.4375 -18.5625 62.4375 -26.5625 62.4375 C-26.5625 42.9675 -26.5625 23.4975 -26.5625 3.4375 C-6.68817124 -0.06973449 -6.68817124 -0.06973449 0 0 Z " fill="#FCFAF5" transform="translate(260.5625,536.5625)"/>
<path d="M0 0 C4.95 0 9.9 0 15 0 C15 16.5 15 33 15 50 C-1 50 -1 50 -4.90625 46.66796875 C-6.28125 44.49414062 -6.28125 44.49414062 -7.5 42.1875 C-8.38353281 40.72151922 -9.26898694 39.25669487 -10.15625 37.79296875 C-11.56390625 35.42044922 -11.56390625 35.42044922 -13 33 C-15.64 29.37 -18.28 25.74 -21 22 C-21.33 31.9 -21.66 41.8 -22 52 C-26.95 52.33 -31.9 52.66 -37 53 C-37 35.84 -37 18.68 -37 1 C-21 1 -21 1 -17.09375 4.33203125 C-15.71875 6.50585938 -15.71875 6.50585938 -14.5 8.8125 C-13.61646719 10.27848078 -12.73101306 11.74330513 -11.84375 13.20703125 C-10.9053125 14.78871094 -9.966875 16.37039063 -9 18 C-6.36 21.63 -3.72 25.26 -1 29 C-0.67 19.43 -0.34 9.86 0 0 Z " fill="#FCF9F3" transform="translate(427,525)"/>
<path d="M0 0 C47.18288177 0 47.18288177 0 55.6640625 8.3984375 C58.60030433 11.9184935 59.84997417 14.84265788 60.4375 19.375 C59.76130301 24.97777507 57.505096 30.3959232 53 34 C47.9142772 36.2916206 43.21289849 36.27043612 37.75 36.1875 C36.85772705 36.18105469 35.9654541 36.17460937 35.04614258 36.16796875 C23.35669929 36.04000768 11.67801073 35.49959404 0 35 C0 23.45 0 11.9 0 0 Z " fill="#FAFBFC" transform="translate(678,345)"/>
<path d="M0 0 C4.09911981 9.95692312 8.14089114 19.82711006 11.1328125 30.1796875 C11.98520207 32.95187338 13.0047896 35.57621314 14.125 38.25 C16.00799782 42.77216011 17.06985319 47.19424148 18 52 C15.0384304 53.4807848 12.16493705 53.35314037 8.875 53.5625 C7.59367187 53.64628906 6.31234375 53.73007812 4.9921875 53.81640625 C4.00476563 53.87699219 3.01734375 53.93757812 2 54 C1.01 49.05 1.01 49.05 0 44 C-1.12535156 44.10828125 -1.12535156 44.10828125 -2.2734375 44.21875 C-8.87288627 44.81718868 -15.37457568 45.13192217 -22 45 C-22.13277344 45.61488281 -22.26554687 46.22976563 -22.40234375 46.86328125 C-22.66724609 48.07564453 -22.66724609 48.07564453 -22.9375 49.3125 C-23.19853516 50.51326172 -23.19853516 50.51326172 -23.46484375 51.73828125 C-24 54 -24 54 -25 57 C-26.56116819 57.33951619 -28.12401338 57.67132544 -29.6875 58 C-30.55761719 58.185625 -31.42773438 58.37125 -32.32421875 58.5625 C-34.93712964 58.98972047 -37.35813038 59.07616201 -40 59 C-38.96599849 52.48579049 -37.25146586 46.45296357 -35.0625 40.25 C-34.80968262 39.52949463 -34.55686523 38.80898926 -34.29638672 38.06665039 C-33.19666568 35.01331973 -32.07068164 32.1353929 -30.56640625 29.25390625 C-28.15493776 24.24454652 -26.58115599 18.97158383 -24.875 13.6875 C-24.16673197 11.50303892 -23.45593488 9.31939566 -22.7421875 7.13671875 C-22.4313623 6.17467529 -22.12053711 5.21263184 -21.80029297 4.22143555 C-21 2 -21 2 -20 1 C-18.34009365 0.7599064 -16.67079656 0.5836947 -15 0.4375 C-14.0925 0.35371094 -13.185 0.26992188 -12.25 0.18359375 C-8.16292207 -0.04728685 -4.09227471 -0.0358074 0 0 Z " fill="#FCFAF5" transform="translate(325,531)"/>
<path d="M0 0 C4.95 0 9.9 0 15 0 C18.48832458 3.79165715 20.48767088 6.66005441 23 11 C24.70322042 13.34593251 26.5050142 15.60887406 28.3125 17.875 C31.15036781 21.47592808 33.62771744 25.04619573 36 29 C36.33 20.09 36.66 11.18 37 2 C41.62 2 46.24 2 51 2 C51 17.18 51 32.36 51 48 C37 48 37 48 32.625 43.6875 C31.38469151 41.81242978 30.17726084 39.91528337 29 38 C27.61668081 36.09501634 26.22087114 34.19903796 24.8125 32.3125 C21.86129801 28.21809556 18.9336169 24.10706366 16 20 C15.67 28.91 15.34 37.82 15 47 C10.05 47 5.1 47 0 47 C0 31.49 0 15.98 0 0 Z " fill="#FDFBF7" transform="translate(551,527)"/>
<path d="M0 0 C-0.13277344 1.0415625 -0.26554688 2.083125 -0.40234375 3.15625 C-1.30189327 10.39183109 -2.09383369 17.59354583 -2.5 24.875 C-2.82127321 30.62973592 -3.3098798 36.33353043 -3.9375 42.0625 C-4.29355948 45.37479906 -4.64730952 48.68734061 -5 52 C-5.14187744 53.32064453 -5.14187744 53.32064453 -5.28662109 54.66796875 C-6.49063311 66.1316349 -7.213838 77.5327939 -7.3125 89.0625 C-7.33006348 90.16279541 -7.34762695 91.26309082 -7.36572266 92.39672852 C-7.36138657 97.97076379 -7.29091586 102.25179293 -4 107 C-1.70370006 108.14814997 0.07698086 108.30769809 2.625 108.5625 C3.85089844 108.68818359 3.85089844 108.68818359 5.1015625 108.81640625 C5.72804688 108.87699219 6.35453125 108.93757812 7 109 C1.62081217 113.55464079 -6.95322811 116.63433274 -14.0625 116.0625 C-18.35931809 114.50833175 -19.80138255 111.97488531 -22.09472656 108.19628906 C-25.55790202 99.79425928 -22.79503469 87.19103665 -22.25 78.25 C-22.20842773 77.55442993 -22.16685547 76.85885986 -22.12402344 76.14221191 C-21.31710191 62.77346479 -20.31913649 49.41833416 -19.26208496 36.06726074 C-19.08796758 33.86342292 -18.91615754 31.65940153 -18.7467041 29.4552002 C-18.50570905 26.33923432 -18.25437724 23.22427356 -18 20.109375 C-17.92916199 19.17637573 -17.85832397 18.24337646 -17.78533936 17.28210449 C-16.88474457 6.6027425 -16.88474457 6.6027425 -13.6875 2.1875 C-9.62068455 -0.67433309 -4.77070814 -0.02799711 0 0 Z " fill="#174E8A" transform="translate(776,520)"/>
<path d="M0 0 C-1.07401108 2.91517292 -1.77810176 4.77810176 -4 7 C-6.07824828 6.79558214 -8.1559943 6.5799789 -10.2265625 6.30859375 C-20.34921534 4.93593673 -20.34921534 4.93593673 -29.75 7.875 C-32.21332003 10.20146892 -32.90644196 11.06135214 -33.23828125 14.390625 C-33.395433 20.4451031 -33.31134189 24.33908985 -29 29 C-25.06138936 31.86381372 -22.01607635 32.44363251 -17.1875 32.6875 C-16.02605469 32.75324219 -14.86460937 32.81898438 -13.66796875 32.88671875 C-12.78753906 32.92410156 -11.90710938 32.96148438 -11 33 C-11.495 29.04 -11.495 29.04 -12 25 C-14.64 24.67 -17.28 24.34 -20 24 C-20 21.69 -20 19.38 -20 17 C-12.41 17 -4.82 17 3 17 C3.0268245 21.14587582 3.04675315 25.29158038 3.0625 29.4375 C3.07087891 30.62150391 3.07925781 31.80550781 3.08789062 33.02539062 C3.09111328 34.15009766 3.09433594 35.27480469 3.09765625 36.43359375 C3.10289307 37.47572021 3.10812988 38.51784668 3.11352539 39.59155273 C3 42 3 42 2 43 C-12.68806874 44.13333864 -30.38326267 45.28036357 -42.5703125 35.48828125 C-48.82317286 28.97915612 -50.33564927 22.54279585 -50.20703125 13.75 C-49.7960105 8.29040356 -47.85114803 4.52726509 -44 0.75 C-32.17104156 -8.48597173 -12.53686263 -7.07207636 0 0 Z " fill="#FDFAF5" transform="translate(668,537)"/>
<path d="M0 0 C15.51 0 31.02 0 47 0 C47 3.3 47 6.6 47 10 C41.72 10 36.44 10 31 10 C31 22.87 31 35.74 31 49 C26.05 49 21.1 49 16 49 C16 36.13 16 23.26 16 10 C10.72 10 5.44 10 0 10 C0 6.7 0 3.4 0 0 Z " fill="#FDFBF7" transform="translate(456,525)"/>
<path d="M0 0 C0 17.49 0 34.98 0 53 C-6 54 -6 54 -15 54 C-15 36.51 -15 19.02 -15 1 C-3 0 -3 0 0 0 Z " fill="#FDFBF6" transform="translate(371,527)"/>
<path d="M0 0 C4.95 0 9.9 0 15 0 C15 15.51 15 31.02 15 47 C10.05 47 5.1 47 0 47 C0 31.49 0 15.98 0 0 Z " fill="#FDFCF9" transform="translate(517,526)"/>
<path d="M0 0 C0.03867187 0.94359375 0.03867187 0.94359375 0.078125 1.90625 C0.47862838 7.95021005 1.50574792 12.94981681 5 18 C7.29629994 19.14814997 9.07698086 19.30769809 11.625 19.5625 C12.44226563 19.64628906 13.25953125 19.73007812 14.1015625 19.81640625 C15.04128906 19.90728516 15.04128906 19.90728516 16 20 C10.62081217 24.55464079 2.04677189 27.63433274 -5.0625 27.0625 C-8.72554564 25.7375686 -9.94574236 24.2715955 -12 21 C-12.54333984 20.13568359 -12.54333984 20.13568359 -13.09765625 19.25390625 C-14.32883616 16.17862136 -14.19097773 13.54888627 -14.125 10.25 C-14.09792969 8.49429688 -14.09792969 8.49429688 -14.0703125 6.703125 C-14.04710937 5.81109375 -14.02390625 4.9190625 -14 4 C-11.85469262 3.33164276 -9.70873966 2.6653574 -7.5625 2 C-6.36753906 1.62875 -5.17257812 1.2575 -3.94140625 0.875 C-1 0 -1 0 0 0 Z " fill="#07285C" transform="translate(767,609)"/>
<path d="M0 0 C2 2.4375 2 2.4375 2.5 5.875 C1.95940305 9.72675325 1.58001818 11.53497955 -1 14.4375 C-5.85186655 17.10442002 -9.35441723 17.4375 -15 17.4375 C-15 11.4975 -15 5.5575 -15 -0.5625 C-9.44308007 -1.95172998 -5.10742499 -2.66011718 0 0 Z " fill="#E47A11" transform="translate(264,549.5625)"/>
<path d="M0 0 C2.88228706 1.94554377 3.80243877 3.03688899 4.5 6.4375 C3.83945115 9.82281287 2.34452246 11.51756446 0 14 C-3.09173752 15.54586876 -5.59429552 15.29359521 -9 15 C-11.5 13.4375 -11.5 13.4375 -13 11 C-13 7.13978754 -12.52399261 4.81742848 -10.4375 1.5625 C-6.96949462 -0.66058037 -4.00959914 -0.81342278 0 0 Z " fill="#F1F5F8" transform="translate(924,539)"/>
<path d="M0 0 C0.43699219 1.05574219 0.43699219 1.05574219 0.8828125 2.1328125 C3.69768479 8.91846012 3.69768479 8.91846012 6.59765625 15.66796875 C7.12230469 16.87066406 7.64695312 18.07335937 8.1875 19.3125 C8.92033203 20.97732422 8.92033203 20.97732422 9.66796875 22.67578125 C11.03887085 26.09700614 12.04891581 29.44357618 13 33 C13.71953857 32.96970703 14.43907715 32.93941406 15.18041992 32.90820312 C18.51600441 32.76936506 21.85174464 32.6346677 25.1875 32.5 C26.31865234 32.45230469 27.44980469 32.40460938 28.61523438 32.35546875 C36.41465028 32.04438094 44.19470332 31.94181785 52 32 C52 32.33 52 32.66 52 33 C48.09055899 33.43558371 44.18025783 33.86237389 40.26904297 34.28173828 C38.29997229 34.49459792 36.33161353 34.71401095 34.36328125 34.93359375 C26.53886461 35.76766862 18.86803114 36.19863192 11 36 C10.81099121 35.33556885 10.62198242 34.6711377 10.42724609 33.98657227 C8.93135199 28.7703561 7.1813449 23.75466377 5.1171875 18.73828125 C2.99090263 13.52665296 1.01056172 8.25712451 -1 3 C-9.31992705 2.73540868 -17.26941326 3.27731295 -25.51464844 4.28417969 C-31.05100519 4.94378004 -36.41887833 5.18003618 -42 5 C-42 4.67 -42 4.34 -42 4 C-28.37291016 0.8203457 -13.97951278 -0.51144559 0 0 Z " fill="#D37421" transform="translate(340,463)"/>
<path d="M0 0 C0.85078125 0.00322266 1.7015625 0.00644531 2.578125 0.00976562 C3.46757812 0.01814453 4.35703125 0.02652344 5.2734375 0.03515625 C6.170625 0.03966797 7.0678125 0.04417969 7.9921875 0.04882812 C10.21100398 0.06063034 12.42968768 0.0770947 14.6484375 0.09765625 C14.9784375 1.08765625 15.3084375 2.07765625 15.6484375 3.09765625 C39.0784375 3.42765625 62.5084375 3.75765625 86.6484375 4.09765625 C86.6484375 4.42765625 86.6484375 4.75765625 86.6484375 5.09765625 C55.2984375 5.09765625 23.9484375 5.09765625 -8.3515625 5.09765625 C-5.88617551 0.16688227 -5.10842085 -0.03405614 0 0 Z " fill="#B7B0A5" transform="translate(463.3515625,484.90234375)"/>
<path d="M0 0 C2.33722838 3.50584257 3.41233172 7.07550049 4.625 11.0625 C4.85445313 11.79533203 5.08390625 12.52816406 5.3203125 13.28320312 C7 18.72719029 7 18.72719029 7 21 C3.85069107 22.04976964 1.61185544 22.10131595 -1.6875 22.0625 C-2.68136719 22.05347656 -3.67523438 22.04445313 -4.69921875 22.03515625 C-5.83810547 22.01775391 -5.83810547 22.01775391 -7 22 C-5.26751883 14.36133302 -3.13135691 7.18463616 0 0 Z " fill="#E4831B" transform="translate(314,543)"/>
<path d="M0 0 C12.87 0.495 12.87 0.495 26 1 C26 1.33 26 1.66 26 2 C17.585 2.495 17.585 2.495 9 3 C17.84206026 5.72827616 26.51127078 6.88044861 35.6875 7.6875 C37.08276547 7.81746949 38.47794885 7.9483234 39.87304688 8.08007812 C43.24799771 8.39538495 46.62350036 8.70181977 50 9 C47.48768622 11.51231378 45.62148234 11.78661713 42.1875 12.625 C41.14980469 12.88539063 40.11210938 13.14578125 39.04296875 13.4140625 C36.26412163 13.94914218 33.81823638 14.11460481 31 14 C34 12 34 12 37 11 C35.83726562 10.84144531 34.67453125 10.68289063 33.4765625 10.51953125 C22.00958947 8.87553375 11.08449192 6.35050951 0 3 C0 2.01 0 1.02 0 0 Z " fill="#DC8B3E" transform="translate(690,582)"/>
<path d="M0 0 C2.78633115 4.17949673 4 6.93375326 4 12 C4.66 12 5.32 12 6 12 C6.18997559 12.59611084 6.37995117 13.19222168 6.57568359 13.80639648 C11.14229731 28.04149354 16.23129946 41.95550852 21.8984375 55.7890625 C26.31573204 66.63255533 26.31573204 66.63255533 26 72 C23.12900581 69.12900581 22.32809326 65.58377666 21.0625 61.8125 C19.65428024 57.65987243 18.24166269 53.56324532 16.51171875 49.53125 C14.70646554 45.31432778 13.23006998 41.02680572 11.75 36.6875 C9.11727423 29.04925732 6.31969098 21.49841061 3.30957031 14.00073242 C1.60322219 9.71426133 0.19452424 5.45761485 -1 1 C-0.67 0.67 -0.34 0.34 0 0 Z " fill="#E69026" transform="translate(298,348)"/>
<path d="M0 0 C0 1.32 0 2.64 0 4 C-4.58916546 5.12380712 -9.17902349 6.2447256 -13.76953125 7.36303711 C-15.3292927 7.74343913 -16.88886602 8.12461346 -18.44824219 8.5065918 C-20.69676832 9.05723661 -22.94596867 9.60505004 -25.1953125 10.15234375 C-25.8861795 10.3221727 -26.57704651 10.49200165 -27.28884888 10.66697693 C-31.17474182 11.60921365 -35.04753621 12.39503105 -39 13 C-37.37263778 9.74527556 -33.87600457 9.29462548 -30.60546875 8.14453125 C-29.48982292 7.74568977 -29.48982292 7.74568977 -28.35163879 7.33879089 C-26.77505593 6.77787226 -25.19710288 6.22079249 -23.61791992 5.66723633 C-21.20324745 4.8180381 -18.79598512 3.94988548 -16.38867188 3.08007812 C-14.85718459 2.53789235 -13.32529577 1.99683919 -11.79296875 1.45703125 C-11.07304245 1.19565872 -10.35311615 0.93428619 -9.6113739 0.66499329 C-3.41469314 -1.47509013 -3.41469314 -1.47509013 0 0 Z " fill="#15315F" transform="translate(308,636)"/>
<path d="M0 0 C1.64574566 -0.02688151 3.29161413 -0.04634123 4.9375 -0.0625 C5.85402344 -0.07410156 6.77054688 -0.08570313 7.71484375 -0.09765625 C10 0 10 0 11 1 C13.91503465 1.5248262 16.8217428 1.99893613 19.75 2.4375 C20.93916016 2.62022461 20.93916016 2.62022461 22.15234375 2.80664062 C23.84160182 3.06580343 25.53150575 3.3207802 27.22192383 3.57226562 C29.15190687 3.86942094 31.07875968 4.18735106 33.00268555 4.52148438 C41.44811135 5.9475291 49.75712391 6.41728222 58.3125 6.625 C59.650412 6.66332349 60.98830313 6.7023826 62.32617188 6.7421875 C65.55065274 6.8353133 68.7751443 6.92113386 72 7 C68.76792969 9.15471354 67.86308381 9.25589809 64.1328125 9.265625 C63.17189697 9.26981445 62.21098145 9.27400391 61.22094727 9.27832031 C59.68845337 9.26430176 59.68845337 9.26430176 58.125 9.25 C57.0743335 9.24323242 56.02366699 9.23646484 54.94116211 9.22949219 C47.43580676 9.1296298 40.36997312 8.42185977 33 7 C31.06724324 6.67723897 29.13354364 6.36010113 27.19921875 6.046875 C18.07754619 4.56652135 9.00453598 3.09234031 0 1 C0 0.67 0 0.34 0 0 Z " fill="#D47525" transform="translate(646,598)"/>
<path d="M0 0 C0.33 0 0.66 0 1 0 C0.71525737 8.11516498 -2.10119868 14.84050573 -5.23779297 22.19921875 C-6.32297886 24.76306602 -7.34931018 27.34937946 -8.375 29.9375 C-8.91666667 31.29166667 -9.45833333 32.64583333 -10 34 C-8.6696875 33.7525 -8.6696875 33.7525 -7.3125 33.5 C-1.58209173 32.65938226 4.22424581 32.9218319 10 33 C10 33.33 10 33.66 10 34 C7.45887768 34.33801152 4.91723254 34.67053379 2.375 35 C1.66214844 35.09539063 0.94929687 35.19078125 0.21484375 35.2890625 C-3.88821609 35.81606101 -7.85245742 36.10466984 -12 36 C-11.37362455 31.34425409 -10.13163016 27.25059147 -8.49609375 22.8515625 C-8.2533522 22.19417084 -8.01061066 21.53677917 -7.76051331 20.85946655 C-6.99116304 18.77942125 -6.21446646 16.7022108 -5.4375 14.625 C-4.91161981 13.20721274 -4.38622425 11.78924563 -3.86132812 10.37109375 C-2.5798165 6.91196483 -1.2917059 3.45533708 0 0 Z " fill="#D36F28" transform="translate(184,484)"/>
<path d="M0 0 C8.57142857 -0.28571429 8.57142857 -0.28571429 12 2 C6.60350973 3.50195286 1.61439443 4.31876668 -4 4.4140625 C-4.7211499 4.43342865 -5.4422998 4.4527948 -6.18530273 4.4727478 C-8.45675353 4.53185263 -10.72825695 4.57864775 -13 4.625 C-14.55340579 4.66324366 -16.10679183 4.70229896 -17.66015625 4.7421875 C-21.43999302 4.83900296 -25.21965565 4.91911425 -29 5 C-22.07 6.65 -15.14 8.3 -8 10 C-8 10.33 -8 10.66 -8 11 C-13.97400749 11.29950986 -19.11649019 10.22398312 -24.875 8.6875 C-25.74125 8.47416016 -26.6075 8.26082031 -27.5 8.04101562 C-28.32242188 7.82509766 -29.14484375 7.60917969 -29.9921875 7.38671875 C-30.73839355 7.19295654 -31.48459961 6.99919434 -32.25341797 6.79956055 C-32.82979004 6.53570557 -33.40616211 6.27185059 -34 6 C-34.33 5.01 -34.66 4.02 -35 3 C-22.46 2.67 -9.92 2.34 3 2 C2.01 1.34 1.02 0.68 0 0 Z " fill="#DA7A1F" transform="translate(724,565)"/>
<path d="M0 0 C9.24 0 18.48 0 28 0 C28 0.33 28 0.66 28 1 C26.02 1.33 24.04 1.66 22 2 C21.67 2.99 21.34 3.98 21 5 C13.65081658 5.43230491 7.09784913 3.81774185 0 2 C0 1.34 0 0.68 0 0 Z " fill="#294770" transform="translate(428,490)"/>
<path d="M0 0 C0 0.33 0 0.66 0 1 C-1.77503906 1.27263672 -1.77503906 1.27263672 -3.5859375 1.55078125 C-11.19370101 2.75031222 -18.57204033 3.97523026 -25.91015625 6.37109375 C-32.12136058 8.24025991 -38.57116299 8.1339341 -45 8 C-44.34 6.68 -43.68 5.36 -43 4 C-42.01773438 4.19207031 -41.03546875 4.38414062 -40.0234375 4.58203125 C-35.69104163 5.19736651 -31.88235973 4.53973757 -27.625 3.6875 C-26.87404053 3.54723389 -26.12308105 3.40696777 -25.34936523 3.26245117 C-21.55945679 2.5445752 -17.80785492 1.73711356 -14.0625 0.8125 C-9.39340435 -0.29526583 -4.77197334 -0.17932259 0 0 Z " fill="#CF6E26" transform="translate(184,611)"/>
<path d="M0 0 C2.6855594 2.6855594 3.06049974 5.37621328 4 9 C5.07930786 8.95456055 5.07930786 8.95456055 6.18041992 8.90820312 C9.51600441 8.76936506 12.85174464 8.6346677 16.1875 8.5 C17.31865234 8.45230469 18.44980469 8.40460938 19.61523438 8.35546875 C27.41465028 8.04438094 35.19470332 7.94181785 43 8 C43 8.33 43 8.66 43 9 C39.09055899 9.43558371 35.18025783 9.86237389 31.26904297 10.28173828 C29.29997229 10.49459792 27.33161353 10.71401095 25.36328125 10.93359375 C17.53886461 11.76766862 9.86803114 12.19863192 2 12 C0.86235649 7.73383684 0 4.43513689 0 0 Z " fill="#CE691E" transform="translate(349,487)"/>
<path d="M0 0 C0.66 0.33 1.32 0.66 2 1 C-2.95 3.97 -2.95 3.97 -8 7 C-5.03 7 -2.06 7 1 7 C1 8.32 1 9.64 1 11 C-0.11375 10.835 -1.2275 10.67 -2.375 10.5 C-7.25510338 9.87905495 -12.08861948 9.90942126 -17 10 C-13.85226112 6.4413494 -10.68225009 4.6466668 -6.375 2.6875 C-4.65410156 1.88892578 -4.65410156 1.88892578 -2.8984375 1.07421875 C-1.94195312 0.71972656 -0.98546875 0.36523438 0 0 Z " fill="#D87E26" transform="translate(139,555)"/>
<path d="M0 0 C8.91 0 17.82 0 27 0 C27 0.33 27 0.66 27 1 C18.09 1.99 18.09 1.99 9 3 C11.97 3.495 11.97 3.495 15 4 C15 4.33 15 4.66 15 5 C9.5814234 5.22577402 5.22512279 4.46670113 0 3 C0 2.01 0 1.02 0 0 Z " fill="#E18C2B" transform="translate(699,533)"/>
<path d="M0 0 C-2.28911694 0.65621352 -4.58067807 1.29994323 -6.875 1.9375 C-7.50664063 2.11990234 -8.13828125 2.30230469 -8.7890625 2.49023438 C-17.90450941 4.99698227 -26.73865772 5.13596333 -36.125 4.5625 C-37.08148437 4.51029297 -38.03796875 4.45808594 -39.0234375 4.40429688 C-41.34943419 4.27636706 -43.67479719 4.14151455 -46 4 C-46 3.67 -46 3.34 -46 3 C-45.15743652 2.97812622 -45.15743652 2.97812622 -44.29785156 2.95581055 C-32.83955069 2.62693639 -21.64920706 1.92583347 -10.34863281 -0.0715332 C-9.57100586 -0.20519287 -8.79337891 -0.33885254 -7.9921875 -0.4765625 C-7.31526855 -0.60111816 -6.63834961 -0.72567383 -5.94091797 -0.85400391 C-3.75326412 -1.0185595 -2.08793334 -0.63540733 0 0 Z " fill="#E89A37" transform="translate(742,611)"/>
<path d="M0 0 C0.33 0 0.66 0 1 0 C1 6.93 1 13.86 1 21 C-5.75 22.125 -5.75 22.125 -9.3046875 22.09765625 C-10.42617188 22.09282227 -10.42617188 22.09282227 -11.5703125 22.08789062 C-12.71113281 22.07532227 -12.71113281 22.07532227 -13.875 22.0625 C-14.65875 22.05798828 -15.4425 22.05347656 -16.25 22.04882812 C-18.16670014 22.03714093 -20.08336048 22.01920908 -22 22 C-22 21.34 -22 20.68 -22 20 C-14.74 19.67 -7.48 19.34 0 19 C0 12.73 0 6.46 0 0 Z " fill="#476184" transform="translate(599,467)"/>
<path d="M0 0 C10.2215298 0.4593946 20.04878609 2.78289017 30 5 C30 5.66 30 6.32 30 7 C23.44151546 6.25826663 16.9880122 5.14229492 10.5 3.9375 C9.48679687 3.75123047 8.47359375 3.56496094 7.4296875 3.37304688 C4.95274538 2.91738299 2.47620374 2.4596565 0 2 C0 1.34 0 0.68 0 0 Z " fill="#243C65" transform="translate(621,631)"/>
<path d="M0 0 C0.66 0 1.32 0 2 0 C3.45409553 4.07108732 4.89622577 8.14615437 6.32739258 12.2253418 C6.81598018 13.6125671 7.30782499 14.99864966 7.80297852 16.38354492 C8.51396401 18.37387643 9.21315182 20.3680175 9.91015625 22.36328125 C10.33433838 23.56251221 10.75852051 24.76174316 11.19555664 25.99731445 C12 29 12 29 11 32 C10.01 31.67 9.02 31.34 8 31 C8 29.68 8 28.36 8 27 C6.47493185 20.71393229 4.64399949 14.47400611 2.3125 8.4375 C1.22239892 5.58247335 0.46987823 3.00722068 0 0 Z " fill="#D87A21" transform="translate(333,552)"/>
<path d="M0 0 C8.91 0 17.82 0 27 0 C23.46153846 3.53846154 23.46153846 3.53846154 20 4 C19.67 3.67 19.34 3.34 19 3 C15.6336022 2.76277062 12.27447239 2.60391333 8.90234375 2.48242188 C5.13253568 2.30045482 3.20635708 2.13757139 0 0 Z " fill="#E49842" transform="translate(720,525)"/>
<path d="M0 0 C-2.96289097 1.97526065 -3.71906956 2.26115403 -7.0546875 2.45703125 C-7.83457031 2.51826172 -8.61445313 2.57949219 -9.41796875 2.64257812 C-11.04744567 2.7552685 -12.67772352 2.85695259 -14.30859375 2.94726562 C-19.91044509 3.41331751 -22.2359272 4.55610417 -26 9 C-26.66 9 -27.32 9 -28 9 C-27.08287267 5.91511716 -26.43058268 4.31986142 -23.8125 2.375 C-20.60786568 0.80828989 -18.23832071 0.5038616 -14.6875 0.3125 C-13.553125 0.24804688 -12.41875 0.18359375 -11.25 0.1171875 C-7.49138784 -0.01833938 -3.7601819 -0.07372906 0 0 Z " fill="#E1922F" transform="translate(279,303)"/>
<path d="M0 0 C7.92 0 15.84 0 24 0 C24 0.33 24 0.66 24 1 C16.08 1.495 16.08 1.495 8 2 C13.28 2.66 18.56 3.32 24 4 C24 4.33 24 4.66 24 5 C16.29886968 5.30668218 7.03379196 5.51689598 0 2 C0 1.34 0 0.68 0 0 Z " fill="#DC893F" transform="translate(697,596)"/>
<path d="M0 0 C1.31787109 1.9777832 1.31787109 1.9777832 2.2734375 4.55078125 C2.62277344 5.47697266 2.97210938 6.40316406 3.33203125 7.35742188 C3.67621094 8.33259766 4.02039063 9.30777344 4.375 10.3125 C4.74238281 11.27607422 5.10976563 12.23964844 5.48828125 13.23242188 C8.37197873 21.08369633 8.37197873 21.08369633 7 25 C3.91518675 17.36551804 0.94131136 9.69080593 -2 2 C-4.31 1.67 -6.62 1.34 -9 1 C-5.65581586 -1.10559742 -3.74627747 -1.26450597 0 0 Z " fill="#DB7A27" transform="translate(341,464)"/>
<path d="M0 0 C-1.134375 0.28875 -2.26875 0.5775 -3.4375 0.875 C-4.613125 1.24625 -5.78875 1.6175 -7 2 C-7.33 2.66 -7.66 3.32 -8 4 C-14.0018137 4.21824777 -19.19233704 3.5056904 -25 2 C-25 1.67 -25 1.34 -25 1 C-21.58444097 0.63455844 -18.1674656 0.28462134 -14.75 -0.0625 C-13.29787109 -0.2181543 -13.29787109 -0.2181543 -11.81640625 -0.37695312 C-10.88183594 -0.47041016 -9.94726562 -0.56386719 -8.984375 -0.66015625 C-8.12553711 -0.74918213 -7.26669922 -0.83820801 -6.38183594 -0.92993164 C-4.03174315 -0.99906619 -2.23550359 -0.69010991 0 0 Z " fill="#F9E7C5" transform="translate(730,534)"/>
<path d="M0 0 C6.27 0 12.54 0 19 0 C16.48768622 2.51231378 14.62148234 2.78661713 11.1875 3.625 C9.63095703 4.01558594 9.63095703 4.01558594 8.04296875 4.4140625 C5.26412163 4.94914218 2.81823638 5.11460481 0 5 C3 3 3 3 6 2 C3.03 1.505 3.03 1.505 0 1 C0 0.67 0 0.34 0 0 Z " fill="#DB6F15" transform="translate(721,591)"/>
<path d="M0 0 C0 1.32 0 2.64 0 4 C-5.03511899 5.0070238 -8.23947038 4.97387813 -13 3 C-8.8341563 0.22277086 -4.9360889 -1.89849573 0 0 Z " fill="#113566" transform="translate(308,636)"/>
<path d="M0 0 C7.92 0 15.84 0 24 0 C24 0.33 24 0.66 24 1 C20.04 1 16.08 1 12 1 C12 1.66 12 2.32 12 3 C14.97 3.495 14.97 3.495 18 4 C13.93714243 5.63129887 10.79897816 4.29968777 6.75 3.0625 C5.48671875 2.68222656 4.2234375 2.30195312 2.921875 1.91015625 C1.95765625 1.60980469 0.9934375 1.30945313 0 1 C0 0.67 0 0.34 0 0 Z " fill="#EFCD9E" transform="translate(692,569)"/>
<path d="M0 0 C5.94 0.33 11.88 0.66 18 1 C14.58788584 3.27474277 12.3431471 3.56629644 8.3125 4.125 C7.13300781 4.29257812 5.95351563 4.46015625 4.73828125 4.6328125 C3.83464844 4.75398437 2.93101562 4.87515625 2 5 C2.33 3.68 2.66 2.36 3 1 C2.01 0.67 1.02 0.34 0 0 Z " fill="#DD7119" transform="translate(716,601)"/>
<path d="M0 0 C0 0.66 0 1.32 0 2 C-0.99 2 -1.98 2 -3 2 C-3 2.66 -3 3.32 -3 4 C-0.69 4 1.62 4 4 4 C0.58788584 6.27474277 -1.6568529 6.56629644 -5.6875 7.125 C-6.86699219 7.29257812 -8.04648438 7.46015625 -9.26171875 7.6328125 C-10.16535156 7.75398437 -11.06898438 7.87515625 -12 8 C-4.43243243 0 -4.43243243 0 0 0 Z " fill="#D97B26" transform="translate(150,580)"/>
<path d="M0 0 C5 5 5 5 5 7 C3.68 6.67 2.36 6.34 1 6 C1 13.26 1 20.52 1 28 C0.67 28 0.34 28 0 28 C0 18.76 0 9.52 0 0 Z " fill="#D87B1B" transform="translate(566,546)"/>
<path d="M0 0 C10.56 0 21.12 0 32 0 C32 0.33 32 0.66 32 1 C23.42 1.33 14.84 1.66 6 2 C6 2.33 6 2.66 6 3 C4.35 3 2.7 3 1 3 C0.67 2.01 0.34 1.02 0 0 Z " fill="#DF8727" transform="translate(694,545)"/>
<path d="M0 0 C0.99 0 1.98 0 3 0 C2.26231278 3.47293199 0.97005486 6.55883462 -0.4375 9.8125 C-2.28522666 14.17548463 -3.851806 18.40722398 -5 23 C-5.33 23 -5.66 23 -6 23 C-5.50387003 14.89654389 -2.679915 7.59474067 0 0 Z " fill="#E89C31" transform="translate(294,344)"/>
<path d="M0 0 C1.16516703 3.39451994 0.83093313 5.34075897 -0.375 8.6875 C-0.65085937 9.47511719 -0.92671875 10.26273438 -1.2109375 11.07421875 C-2 13 -2 13 -3 14 C-3.04080783 15.99958364 -3.04254356 18.00045254 -3 20 C-4.32 19.67 -5.64 19.34 -7 19 C-6.34 16.36 -5.68 13.72 -5 11 C-4.34 11 -3.68 11 -3 11 C-2.814375 9.39125 -2.814375 9.39125 -2.625 7.75 C-2.10356064 4.62136385 -1.59911746 2.66519576 0 0 Z " fill="#BB6024" transform="translate(668,621)"/>
<path d="M0 0 C0.33 0 0.66 0 1 0 C0.72876813 8.13695602 -2.08916501 13.93179365 -6 21 C-7 19 -7 19 -6.47094727 17.02880859 C-6.17244873 16.24328613 -5.8739502 15.45776367 -5.56640625 14.6484375 C-5.24736328 13.79765625 -4.92832031 12.946875 -4.59960938 12.0703125 C-4.08624023 10.73613281 -4.08624023 10.73613281 -3.5625 9.375 C-3.05493164 8.02921875 -3.05493164 8.02921875 -2.53710938 6.65625 C-1.69817012 4.43483339 -0.8522225 2.21634729 0 0 Z " fill="#DA8338" transform="translate(184,484)"/>
<path d="M0 0 C1.64574566 -0.02688151 3.29161413 -0.04634123 4.9375 -0.0625 C5.85402344 -0.07410156 6.77054688 -0.08570313 7.71484375 -0.09765625 C10 0 10 0 11 1 C13.18019479 1.39666227 15.3696463 1.74315237 17.5625 2.0625 C18.76003906 2.23910156 19.95757813 2.41570313 21.19140625 2.59765625 C22.11824219 2.73042969 23.04507813 2.86320313 24 3 C23.67 3.66 23.34 4.32 23 5 C15.23216563 4.20736384 7.6370361 2.58110513 0 1 C0 0.67 0 0.34 0 0 Z " fill="#D58039" transform="translate(646,598)"/>
<path d="M0 0 C5.61 0 11.22 0 17 0 C16.01 0.33 15.02 0.66 14 1 C14 1.66 14 2.32 14 3 C14.99 3.33 15.98 3.66 17 4 C11.08507728 3.54775239 5.64800112 2.8417395 0 1 C0 0.67 0 0.34 0 0 Z " fill="#FAE8CA" transform="translate(697,558)"/>
<path d="M0 0 C5.94 0 11.88 0 18 0 C17.67 0.99 17.34 1.98 17 3 C14.9160597 2.88556397 12.83283507 2.75804453 10.75 2.625 C9.58984375 2.55539062 8.4296875 2.48578125 7.234375 2.4140625 C4 2 4 2 0 0 Z " fill="#FBE9CE" transform="translate(701,597)"/>
<path d="M0 0 C6.15234375 -0.09765625 6.15234375 -0.09765625 8 0 C9 1 9 1 9.09765625 2.84765625 C9.04882812 5.92382812 9.04882812 5.92382812 9 9 C4.71 9 0.42 9 -4 9 C-4 8.67 -4 8.34 -4 8 C-0.04 8 3.92 8 8 8 C7.67 6.35 7.34 4.7 7 3 C4.69 2.67 2.38 2.34 0 2 C0 1.34 0 0.68 0 0 Z " fill="#DF9645" transform="translate(648,561)"/>
<path d="M0 0 C0 0.66 0 1.32 0 2 C-14.59681093 5.44419134 -14.59681093 5.44419134 -22 5 C-18.59363053 2.72908702 -15.50162743 2.11523871 -11.5625 1.375 C-10.89412109 1.2409375 -10.22574219 1.106875 -9.53710938 0.96875 C-6.26683498 0.33349353 -3.34797714 0 0 0 Z " fill="#DE8F31" transform="translate(226,531)"/>
<path d="M0 0 C0.66 0.33 1.32 0.66 2 1 C1.67 1.33 1.34 1.66 1 2 C4.63 2 8.26 2 12 2 C12 2.33 12 2.66 12 3 C6.19233704 4.5056904 1.0018137 5.21824777 -5 5 C-5 4.34 -5 3.68 -5 3 C-2.625 1.3125 -2.625 1.3125 0 0 Z " fill="#CF762E" transform="translate(143,595)"/>
<path d="M0 0 C1.08203125 1.92578125 1.08203125 1.92578125 1.8125 4.3125 C2.06644531 5.09238281 2.32039063 5.87226562 2.58203125 6.67578125 C3.02792519 9.15528491 2.79557487 10.63492369 2 13 C1.3291288 11.3767313 0.66342971 9.75132422 0 8.125 C-0.37125 7.22007812 -0.7425 6.31515625 -1.125 5.3828125 C-2 3 -2 3 -2 1 C-4.97 1 -7.94 1 -11 1 C-11 0.67 -11 0.34 -11 0 C-3.18798956 -1.35207873 -3.18798956 -1.35207873 0 0 Z " fill="#DE8928" transform="translate(327,530)"/>
<path d="M0 0 C-7.51333004 2.8917284 -13.92386148 4.64323227 -22 4 C-18.5989125 1.73260834 -15.49364674 1.07762252 -11.5625 0.3125 C-10.89412109 0.17005859 -10.22574219 0.02761719 -9.53710938 -0.11914062 C-6.08640357 -0.80654585 -3.34010306 -1.272827 0 0 Z " fill="#F3CA9A" transform="translate(173,582)"/>
<path d="M0 0 C0.33 0 0.66 0 1 0 C1.05451714 2.04136395 1.09302485 4.08315856 1.125 6.125 C1.14820313 7.26195312 1.17140625 8.39890625 1.1953125 9.5703125 C0.99672109 13.05757767 0.2524801 15.7553862 -1 19 C-1.33 19 -1.66 19 -2 19 C-1.8595017 16.2079699 -1.71284617 13.41650204 -1.5625 10.625 C-1.52318359 9.8309375 -1.48386719 9.036875 -1.44335938 8.21875 C-1.11328125 2.2265625 -1.11328125 2.2265625 0 0 Z " fill="#3B6492" transform="translate(757,568)"/>
<path d="M0 0 C0 0.66 0 1.32 0 2 C-1.65848177 3.01351664 -3.32665961 4.01120795 -5 5 C-5.721875 5.721875 -6.44375 6.44375 -7.1875 7.1875 C-7.785625 7.785625 -8.38375 8.38375 -9 9 C-9.66 9 -10.32 9 -11 9 C-11 10.98 -11 12.96 -11 15 C-11.33 15 -11.66 15 -12 15 C-12.5 11.9375 -12.5 11.9375 -12 8 C-9.04519515 4.56621994 -4.79693943 0 0 0 Z " fill="#CF6E23" transform="translate(178,617)"/>
<path d="M0 0 C0 0.33 0 0.66 0 1 C-2.434964 1.69784331 -4.87227105 2.38353822 -7.3125 3.0625 C-8.00279297 3.26166016 -8.69308594 3.46082031 -9.40429688 3.66601562 C-14.66015625 5.11328125 -14.66015625 5.11328125 -18 4 C-16.13360019 3.12720138 -14.25639389 2.27748973 -12.375 1.4375 C-11.33085937 0.96183594 -10.28671875 0.48617187 -9.2109375 -0.00390625 C-5.65559246 -1.10684175 -3.57136768 -0.89552313 0 0 Z " fill="#546985" transform="translate(287,644)"/>
<path d="M0 0 C6.6 0 13.2 0 20 0 C20 0.33 20 0.66 20 1 C16.7 1 13.4 1 10 1 C10 1.66 10 2.32 10 3 C6.7 2.34 3.4 1.68 0 1 C0 0.67 0 0.34 0 0 Z " fill="#FDF4DF" transform="translate(696,584)"/>
<path d="M0 0 C0.33 0.66 0.66 1.32 1 2 C6.445 1.505 6.445 1.505 12 1 C6.62464379 3.6876781 3.07901389 5.28274483 -3 5 C-1.125 1.125 -1.125 1.125 0 0 Z " fill="#D68338" transform="translate(122,576)"/>
<path d="M0 0 C1.30979218 3.61032461 0.69111399 5.62664358 -0.75 9.125 C-1.09546875 9.99382812 -1.4409375 10.86265625 -1.796875 11.7578125 C-3 14 -3 14 -6 16 C-4.25192871 10.53262809 -2.34205919 5.24175152 0 0 Z " fill="#E79932" transform="translate(228,370)"/>
<path d="M0 0 C0.66 0 1.32 0 2 0 C0.50829734 4.9723422 -1.60457417 9.41845739 -4 14 C-5.06528748 11.26980214 -5.07998186 10.20701188 -4.00390625 7.421875 C-3.52824219 6.54015625 -3.05257812 5.6584375 -2.5625 4.75 C-2.08941406 3.85796875 -1.61632812 2.9659375 -1.12890625 2.046875 C-0.75636719 1.37140625 -0.38382813 0.6959375 0 0 Z " fill="#22273B" transform="translate(671,611)"/>
<path d="M0 0 C5.61 0 11.22 0 17 0 C12 4 12 4 10 4 C10 3.34 10 2.68 10 2 C6.7 2 3.4 2 0 2 C0 1.34 0 0.68 0 0 Z " fill="#F4DDBC" transform="translate(121,564)"/>
<path d="M0 0 C-2.17424117 2.50037734 -3.73045798 3.43628586 -7 4 C-7 3.34 -7 2.68 -7 2 C-9.97 2 -12.94 2 -16 2 C-16 1.67 -16 1.34 -16 1 C-14.27111445 0.83044205 -12.54187557 0.66448486 -10.8125 0.5 C-9.84957031 0.4071875 -8.88664063 0.314375 -7.89453125 0.21875 C-5.24812333 0.01875156 -2.65239135 -0.03879183 0 0 Z " fill="#F6DABA" transform="translate(171,596)"/>
<path d="M0 0 C3.3 0.33 6.6 0.66 10 1 C7.14521674 2.90318884 5.58058692 3.4619099 2.3125 4.125 C1.50425781 4.29257812 0.69601562 4.46015625 -0.13671875 4.6328125 C-0.75160156 4.75398437 -1.36648438 4.87515625 -2 5 C-2 4.34 -2 3.68 -2 3 C-1.01 2.67 -0.02 2.34 1 2 C0.67 1.34 0.34 0.68 0 0 Z " fill="#DC8327" transform="translate(730,540)"/>
<path d="M0 0 C1.19180968 3.4626903 0.80706459 5.65326824 -0.25 9.125 C-0.50265625 9.99382812 -0.7553125 10.86265625 -1.015625 11.7578125 C-2 14 -2 14 -5 16 C-3.41078475 10.63904723 -1.81027062 5.29156027 0 0 Z " fill="#DE9043" transform="translate(194,457)"/>
<path d="M0 0 C0.66 0.33 1.32 0.66 2 1 C-0.31 3.64 -2.62 6.28 -5 9 C-5.66 8.34 -6.32 7.68 -7 7 C-4.66666667 4.66666667 -2.33333333 2.33333333 0 0 Z " fill="#184174" transform="translate(484,339)"/>
<path d="M0 0 C0.66 0.33 1.32 0.66 2 1 C1.34 4.3 0.68 7.6 0 11 C-1.32 10.67 -2.64 10.34 -4 10 C-2.8905928 6.51329166 -1.73662334 3.22515763 0 0 Z " fill="#D4751D" transform="translate(673,611)"/>
<path d="M0 0 C8.57142857 -0.28571429 8.57142857 -0.28571429 12 2 C3.96428571 4.27678571 3.96428571 4.27678571 0 3 C0.99 2.67 1.98 2.34 3 2 C2.01 1.34 1.02 0.68 0 0 Z " fill="#D8853C" transform="translate(724,565)"/>
<path d="M0 0 C2 3 2 3 2 7 C0.35 7.66 -1.3 8.32 -3 9 C-2.01 6.03 -1.02 3.06 0 0 Z " fill="#E49235" transform="translate(314,543)"/>
<path d="M0 0 C-2.1490568 2.47141532 -3.68879509 3.69898137 -7 4 C-8.35212298 3.37231722 -9.68870382 2.70903071 -11 2 C-9.54494642 1.47007308 -8.08581873 0.9513211 -6.625 0.4375 C-5.81289063 0.14746094 -5.00078125 -0.14257812 -4.1640625 -0.44140625 C-2 -1 -2 -1 0 0 Z " fill="#BED0DF" transform="translate(780,398)"/>
<path d="M0 0 C2.31 0 4.62 0 7 0 C6 3 6 3 3.6875 4.25 C0.90126985 5.0275526 -0.33438378 4.98726527 -3 4 C-1.35 3.34 0.3 2.68 2 2 C1.34 1.34 0.68 0.68 0 0 Z " fill="#D37224" transform="translate(184,610)"/>
<path d="M0 0 C2.64 0 5.28 0 8 0 C5.6870518 2.3129482 4.52095125 2.49580975 1.375 3.125 C0.55773437 3.29257812 -0.25953125 3.46015625 -1.1015625 3.6328125 C-2.04128906 3.81457031 -2.04128906 3.81457031 -3 4 C-3 3.34 -3 2.68 -3 2 C-2.01 2 -1.02 2 0 2 C0 1.34 0 0.68 0 0 Z " fill="#D9883A" transform="translate(732,591)"/>
<path d="M0 0 C2.97 0 5.94 0 9 0 C9 0.66 9 1.32 9 2 C4.545 2.495 4.545 2.495 0 3 C0 2.01 0 1.02 0 0 Z " fill="#DD9449" transform="translate(730,579)"/>
<path d="M0 0 C0.33 0.99 0.66 1.98 1 3 C-0.9375 5.6875 -0.9375 5.6875 -3 8 C-3.75 6.25 -3.75 6.25 -4 4 C-2.0625 1.75 -2.0625 1.75 0 0 Z " fill="#103B6E" transform="translate(948,549)"/>
<path d="M0 0 C0.33 2.31 0.66 4.62 1 7 C-1 4 -1 4 -2 2 C-4.32156597 1.59270772 -6.6568787 1.25561323 -9 1 C-5.64919071 -1.10976881 -3.77897651 -1.0497157 0 0 Z " fill="#DA8938" transform="translate(341,464)"/>
<path d="M0 0 C-0.33 0.66 -0.66 1.32 -1 2 C-3.31 2 -5.62 2 -8 2 C-8 1.34 -8 0.68 -8 0 C-4.71023192 -1.09658936 -3.28696233 -0.79953138 0 0 Z " fill="#142A56" transform="translate(292,642)"/>
<path d="M0 0 C-0.33 0.99 -0.66 1.98 -1 3 C-4.3 3 -7.6 3 -11 3 C-7.20651739 1.1032587 -4.2270782 0 0 0 Z " fill="#D06D1A" transform="translate(249,597)"/>
<path d="M0 0 C0.33 0.66 0.66 1.32 1 2 C1.99 2.66 2.98 3.32 4 4 C-3.75 3.25 -3.75 3.25 -6 1 C-3 0 -3 0 0 0 Z " fill="#224471" transform="translate(301,637)"/>
<path d="M0 0 C0.33 0 0.66 0 1 0 C0.67 2.97 0.34 5.94 0 9 C-0.99 9.33 -1.98 9.66 -3 10 C-2.01 6.7 -1.02 3.4 0 0 Z " fill="#DF8D41" transform="translate(184,484)"/>
<path d="M0 0 C2.475 0.495 2.475 0.495 5 1 C4.67 1.99 4.34 2.98 4 4 C2.68 4 1.36 4 0 4 C0 2.68 0 1.36 0 0 Z " fill="#FAE8D4" transform="translate(474,485)"/>
<path d="M0 0 C2.64 0 5.28 0 8 0 C6.25 1.5625 6.25 1.5625 4 3 C1.75 2.6875 1.75 2.6875 0 2 C0 1.34 0 0.68 0 0 Z " fill="#2B4067" transform="translate(775,629)"/>
<path d="M0 0 C1.74627478 2.61941217 2.38722388 4.03824877 3 7 C1.68 7.33 0.36 7.66 -1 8 C-0.67 7.34 -0.34 6.68 0 6 C-0.32550502 4.33178677 -0.65846063 2.66500443 -1 1 C-0.67 0.67 -0.34 0.34 0 0 Z " fill="#D98535" transform="translate(342,576)"/>
<path d="M0 0 C1.70884005 1.62339805 3.37446717 3.29319053 5 5 C5 5.66 5 6.32 5 7 C3.68 6.67 2.36 6.34 1 6 C0.67 4.02 0.34 2.04 0 0 Z " fill="#DD832E" transform="translate(566,546)"/>
<path d="M0 0 C0 1.65 0 3.3 0 5 C-1.65 5 -3.3 5 -5 5 C-2.74193548 0 -2.74193548 0 0 0 Z " fill="#EEDECB" transform="translate(460,485)"/>
</svg>
